<?xml version="1.0" encoding="UTF-8"?>
<!DOCTYPE svg PUBLIC "-//W3C//DTD SVG 1.1//EN" "http://www.w3.org/Graphics/SVG/1.1/DTD/svg11.dtd">
<!-- Creator: CorelDRAW X8 -->
<svg xmlns="http://www.w3.org/2000/svg" xml:space="preserve" width="9.4826mm" height="9.4826mm" version="1.1" style="shape-rendering:geometricPrecision; text-rendering:geometricPrecision; image-rendering:optimizeQuality; fill-rule:evenodd; clip-rule:evenodd"
viewBox="0 0 948 948"
 xmlns:xlink="http://www.w3.org/1999/xlink">
 <defs>
  <style type="text/css">
   <![CDATA[
    .fil1 {fill:#003333}
    .fil0 {fill:#669966}
    .fil2 {fill:#003333;fill-rule:nonzero}
   ]]>
  </style>
 </defs>
 <g id="Layer_x0020_1">
  <metadata id="CorelCorpID_0Corel-Layer"/>
  <g id="_3161582514416">
   <path class="fil0" d="M751 667l149 0c1,0 2,0 3,0 5,-5 8,-8 19,-8 11,0 26,12 26,26 0,14 -15,26 -26,26 -11,0 -14,-3 -19,-8 -1,0 -2,0 -3,0l-93 0 -56 -36zm118 -557l31 0c1,0 2,1 3,1 5,-5 8,-8 19,-8 11,0 26,11 26,26 0,14 -15,26 -26,26 -11,0 -14,-4 -19,-9 -1,1 -2,1 -3,1l-21 0c-2,-13 -5,-25 -10,-37zm-8 140l39 0c1,0 2,0 3,0 5,-5 8,-8 19,-8 11,0 26,11 26,26 0,14 -15,26 -26,26 -11,0 -14,-4 -19,-9 -1,1 -2,1 -3,1l-50 0 11 -36zm-44 139l83 0c1,0 2,0 3,0 5,-5 8,-8 19,-8 11,0 26,12 26,26 0,14 -15,26 -26,26 -11,0 -14,-3 -19,-8 -1,0 -2,0 -3,0l-94 0 11 -36zm-53 168l0 0 9 -29 127 0c1,0 2,0 3,0 5,-5 8,-8 19,-8 11,0 26,12 26,26 0,14 -15,26 -26,26 -11,0 -14,-3 -19,-8 -1,0 -2,0 -3,0l-139 0 3 -7z"/>
   <path class="fil0" d="M44 667l19 0c1,13 5,25 9,36l-28 0c-4,5 -7,8 -18,8 -11,0 -26,-12 -26,-26 0,-14 15,-26 26,-26 11,0 14,3 18,8zm0 -557l104 0 6 5 50 32 -160 0c-4,5 -7,8 -18,8 -11,0 -26,-12 -26,-26 0,-15 15,-26 26,-26 11,0 14,3 18,7zm0 140l136 0 -12 36 -124 0c-4,5 -7,8 -18,8 -11,0 -26,-12 -26,-26 0,-15 15,-26 26,-26 11,0 14,3 18,8zm0 139l92 0 -12 36 -80 0c-4,5 -7,8 -18,8 -11,0 -26,-12 -26,-26 0,-14 15,-26 26,-26 11,0 14,3 18,8zm0 139l48 0 -12 36 -36 0c-4,5 -7,8 -18,8 -11,0 -26,-12 -26,-26 0,-14 15,-26 26,-26 11,0 14,3 18,8z"/>
   <path class="fil1" d="M109 86l645 -41c94,-6 147,77 117,172l-112 355 -206 0 84 -259c-43,0 -86,1 -130,1l-111 341 337 0 102 67 -648 47c-94,6 -147,-78 -117,-172l110 -348 127 0 -132 406 130 0 132 -406 226 0 32 -98 -484 0 -57 -36 -45 -29z"/>
   <polygon class="fil2" points="99,817 130,817 130,904 140,904 140,817 171,817 171,807 99,807 "/>
   <polygon id="1" class="fil2" points="181,904 245,904 245,893 191,893 191,860 230,860 230,850 191,850 191,817 245,817 245,807 181,807 "/>
   <polygon id="2" class="fil2" points="277,851 321,807 307,807 266,848 266,807 256,807 256,904 266,904 266,863 270,858 316,904 330,904 "/>
   <polygon id="3" class="fil2" points="409,884 349,807 341,807 341,904 351,904 351,826 411,904 419,904 419,807 409,807 "/>
   <path id="4" class="fil2" d="M478 807c-27,0 -48,22 -48,48 0,27 21,48 48,48 26,0 47,-21 47,-48 0,-26 -21,-48 -47,-48zm0 86c-21,0 -38,-17 -38,-38 0,-21 17,-38 38,-38 21,0 37,17 37,38 0,21 -16,38 -37,38z"/>
   <polygon id="5" class="fil2" points="546,894 546,807 536,807 536,904 600,904 600,894 "/>
   <path id="6" class="fil2" d="M645 807c-26,0 -48,22 -48,48 0,27 22,48 48,48 26,0 48,-21 48,-48 0,-26 -22,-48 -48,-48zm0 86c-21,0 -38,-17 -38,-38 0,-21 17,-38 38,-38 21,0 38,17 38,38 0,21 -17,38 -38,38z"/>
   <path id="7" class="fil2" d="M750 870l37 0c-6,14 -20,24 -35,24 -21,0 -39,-17 -39,-39 0,-21 18,-38 39,-38 16,0 31,11 36,27l10 0c-5,-21 -24,-37 -46,-37 -27,0 -49,22 -49,48 0,27 22,49 49,49 23,0 44,-16 47,-39l0 -5 -49 0 0 10z"/>
   <polygon id="8" class="fil2" points="843,817 843,807 800,807 800,817 816,817 816,894 800,894 800,904 843,904 843,894 826,894 826,817 "/>
  </g>
 </g>
</svg>
