<?xml version="1.0" encoding="UTF-8"?>
<!DOCTYPE svg PUBLIC "-//W3C//DTD SVG 1.1//EN" "http://www.w3.org/Graphics/SVG/1.1/DTD/svg11.dtd">
<!-- Creator: CorelDRAW X8 -->
<svg xmlns="http://www.w3.org/2000/svg" xml:space="preserve" width="75mm" height="70mm" version="1.1" style="shape-rendering:geometricPrecision; text-rendering:geometricPrecision; image-rendering:optimizeQuality; fill-rule:evenodd; clip-rule:evenodd"
viewBox="0 0 7500 7000"
 xmlns:xlink="http://www.w3.org/1999/xlink">
 <defs>
  <style type="text/css">
   <![CDATA[
    .fil1 {fill:#003333}
    .fil0 {fill:#669966}
    .fil2 {fill:#003333;fill-rule:nonzero}
   ]]>
  </style>
 </defs>
 <g id="Layer_x0020_1">
  <metadata id="CorelCorpID_0Corel-Layer"/>
  <path class="fil0" d="M5943 5001l1172 0c10,0 20,1 30,3 38,-40 64,-65 150,-65 86,0 205,92 205,205 0,113 -119,205 -205,205 -86,0 -112,-25 -150,-65 -10,2 -20,3 -30,3l-734 0 -438 -286zm928 -4401l244 0c10,0 20,1 30,3 38,-40 64,-65 150,-65 86,0 205,92 205,205 0,113 -119,205 -205,205 -86,0 -112,-25 -150,-65 -10,2 -20,3 -30,3l-166 0c-12,-102 -39,-198 -78,-286zm-60 1100l304 0c10,0 20,1 30,3 38,-40 64,-65 150,-65 86,0 205,92 205,205 0,113 -119,205 -205,205 -86,0 -112,-25 -150,-65 -10,2 -20,3 -30,3l-395 0 91 -286zm-349 1100l653 0c10,0 20,1 30,3 38,-40 64,-65 150,-65 86,0 205,92 205,205 0,114 -119,205 -205,205 -86,0 -112,-25 -150,-65 -10,2 -20,4 -30,4l-743 0 90 -287zm-423 1332l2 0 73 -232 1001 0c10,0 20,1 30,3 38,-40 64,-65 150,-65 86,0 205,92 205,206 0,113 -119,205 -205,205 -86,0 -112,-25 -150,-65 -10,2 -20,3 -30,3l-1094 0 18 -55z"/>
  <path class="fil0" d="M352 5001l143 0c13,102 39,198 78,286l-221 0c-37,38 -62,62 -147,62 -85,0 -205,-92 -205,-205 0,-113 120,-205 205,-205 85,0 110,23 147,62zm0 -4401l815 0 52 33 395 253 -1262 0c-37,38 -62,62 -147,62 -85,0 -205,-92 -205,-205 0,-113 120,-205 205,-205 85,0 110,23 147,62zm0 1100l1069 0 -91 286 -978 0c-37,38 -62,62 -147,62 -85,0 -205,-92 -205,-205 0,-113 120,-205 205,-205 85,0 110,24 147,62zm0 1100l721 0 -91 287 -630 0c-37,38 -62,61 -147,61 -85,0 -205,-91 -205,-205 0,-113 120,-205 205,-205 85,0 110,24 147,62zm0 1100l372 0 -90 287 -282 0c-37,38 -62,62 -147,62 -85,0 -205,-92 -205,-205 0,-114 120,-206 205,-206 85,0 110,24 147,62z"/>
  <path class="fil1" d="M860 403l5103 -321c746,-48 1166,612 929,1360l-892 2811 -1628 0 668 -2050c-343,0 -684,2 -1031,2l-878 2700 2665 0 810 529 -5124 370c-746,54 -1167,-612 -930,-1360l871 -2751 1006 0 -1046 3212 1031 0 1045 -3212 1787 0 251 -773 -3829 0 -449 -287 -359 -230z"/>
  <polygon class="fil2" points="781,6190 1026,6190 1026,6872 1104,6872 1104,6190 1349,6190 1349,6110 781,6110 "/>
  <polygon id="1" class="fil2" points="1435,6872 1936,6872 1936,6792 1514,6792 1514,6531 1822,6531 1822,6451 1514,6451 1514,6190 1936,6190 1936,6110 1435,6110 "/>
  <polygon id="2" class="fil2" points="2193,6457 2538,6110 2426,6110 2101,6435 2101,6110 2021,6110 2021,6872 2101,6872 2101,6548 2136,6512 2496,6872 2608,6872 "/>
  <polygon id="3" class="fil2" points="3234,6721 2757,6110 2693,6110 2693,6872 2773,6872 2773,6262 3250,6872 3314,6872 3314,6110 3234,6110 "/>
  <path id="4" class="fil2" d="M3778 6110c-209,0 -378,170 -378,379 0,209 169,379 378,379 207,0 377,-170 377,-379 0,-209 -170,-379 -377,-379zm0 680c-165,0 -300,-135 -300,-301 0,-165 135,-300 300,-300 165,0 299,135 299,300 0,166 -134,301 -299,301z"/>
  <polygon id="5" class="fil2" points="4320,6793 4320,6110 4240,6110 4240,6872 4744,6872 4744,6793 "/>
  <path id="6" class="fil2" d="M5101 6110c-208,0 -378,170 -378,379 0,209 170,379 378,379 208,0 377,-170 377,-379 0,-209 -169,-379 -377,-379zm0 680c-165,0 -299,-135 -299,-301 0,-165 134,-300 299,-300 166,0 300,135 300,300 0,166 -134,301 -300,301z"/>
  <path id="7" class="fil2" d="M5934 6605l291 0c-46,114 -155,189 -280,189 -167,0 -303,-135 -303,-302 0,-166 136,-303 303,-303 132,0 248,88 287,212l82 0c-41,-169 -193,-291 -369,-291 -211,0 -381,172 -381,382 0,211 170,380 381,380 182,0 354,-125 374,-306l4 -41 -389 0 0 80z"/>
  <polygon id="8" class="fil2" points="6664,6190 6664,6110 6324,6110 6324,6190 6454,6190 6454,6793 6324,6793 6324,6872 6664,6872 6664,6793 6534,6793 6534,6190 "/>
 </g>
</svg>
